<svg version="1.1" id="Capa_1" xmlns="http://www.w3.org/2000/svg" x="0" y="0" width="612" height="612" xml:space="preserve"><path d="M587.572 186.882C555.3 111.658 500.506 56.864 425.289 24.598 387.413 8.352 347.995.171 306.5.171c-41.488 0-81.213 8.259-119.118 24.427-75.852 32.351-130.967 86.939-163.29 162.284C7.902 224.629 0 264.176 0 305.664c0 41.495 7.902 81.37 24.092 119.124 32.323 75.346 87.438 130.27 163.29 162.619 37.905 16.162 77.63 24.422 119.118 24.422 41.495 0 80.913-8.174 118.789-24.422 75.217-32.271 130.011-87.402 162.283-162.619C603.819 386.913 612 347.159 612 305.664c0-41.488-8.181-80.906-24.428-118.782zm-34.128 223.515c-14.198 33.064-33.13 61.904-57.222 85.996-23.756 23.756-52.531 42.83-85.66 57.215-33.122 14.391-67.586 21.414-104.062 21.414-48.52 0-93.734-11.971-135.179-36.135-41.203-24.02-74.018-56.842-98.039-98.037-24.163-41.453-36.141-86.668-36.141-135.187 0-48.52 12.049-93.355 36.141-134.508 24.092-41.16 56.836-74.024 98.039-98.038 41.445-24.17 86.66-36.142 135.179-36.142s93.355 12.05 134.515 36.142c41.153 24.092 73.818 56.95 97.703 98.038 23.971 41.231 36.142 85.989 36.142 134.508-.001 36.479-7.174 71.549-21.416 104.734z"/><path d="M321.562 188.552c-3.848-3.855-8.366-5.375-13.385-5.689-.335-.021-.335 0-.335 0-4.683 0-8.652 2.056-12.385 5.689l-166.63 162.283c-7.31 7.117-7.631 18.652-.671 26.105 7.431 7.945 18.981 7.596 26.769 0l152.918-149.234L457.076 376.94c7.695 7.695 19.402 7.695 26.098 0 7.024-5.689 7.024-20.416 0-26.105L321.562 188.552z"/></svg>