<svg width="24" height="24" xmlns="http://www.w3.org/2000/svg"><g id="Iconly/Bold/Arrow---Left-Circle" stroke="none" stroke-width="1" fill="none" fill-rule="evenodd"><path d="M10 0l.28.004C15.67.152 20 4.574 20 10c0 5.51-4.48 10-10 10-5.51 0-10-4.49-10-10C0 4.48 4.49 0 10 0zm1.98 6c-.3-.3-.77-.3-1.06 0L7.43 9.47a.75.75 0 000 1.06L10.92 14c.14.15.33.22.52.22a.745.745 0 00.53-1.28L9.02 10l2.95-2.94c.3-.29.3-.77.01-1.06z" transform="translate(2 2)" id="Arrow---Left-Circle" fill="#000" fill-rule="nonzero"/></g></svg>