<svg width="19" height="19" fill="none" xmlns="http://www.w3.org/2000/svg"><g clip-path="url(#clip0_63_967)"><path d="M18.124 18.527L16.704 5.3a.433.433 0 00-.425-.378h-2.627v-.805A4.12 4.12 0 009.535 0a4.12 4.12 0 00-4.117 4.117v.805H2.721a.433.433 0 00-.426.378L.875 18.527a.424.424 0 00.095.331.38.38 0 00.308.142h16.444a.381.381 0 00.308-.142.424.424 0 00.094-.331zM13.227 7.31c.212 0 .378.166.378.379a.374.374 0 01-.379.378.374.374 0 01-.378-.378c0-.213.165-.379.378-.379zM6.27 4.117A3.272 3.272 0 019.535.852a3.272 3.272 0 013.266 3.265v.805H6.27v-.805zm-.426 3.194c.213 0 .379.166.379.379a.374.374 0 01-.379.378.374.374 0 01-.378-.378c0-.213.165-.379.378-.379zm-4.07 10.814L3.1 5.75h2.32v.78a1.203 1.203 0 00-.805 1.136c0 .663.544 1.207 1.207 1.207.662 0 1.206-.544 1.206-1.207 0-.52-.331-.97-.804-1.135V5.75h6.53v.78a1.203 1.203 0 00-.804 1.136c0 .663.544 1.207 1.207 1.207.662 0 1.206-.544 1.206-1.207 0-.52-.331-.97-.804-1.135V5.75h2.413l1.325 12.375H1.774z" fill="#fff"/></g><defs><clipPath id="clip0_63_967"><path fill="#fff" d="M0 0h19v19H0z"/></clipPath></defs></svg>