<svg width="16" height="16" fill="none" xmlns="http://www.w3.org/2000/svg"><g clip-path="url(#clip0_63_922)" fill="#fff"><path d="M14.316 4.21a.667.667 0 00-.31.89A6.674 6.674 0 018 14.666 6.674 6.674 0 011.334 8 6.674 6.674 0 018 1.333a6.59 6.59 0 014.139 1.439.667.667 0 10.83-1.044A8.013 8.013 0 008 0C3.589 0 0 3.589 0 8s3.589 8 8 8 8-3.589 8-8a7.918 7.918 0 00-.793-3.48.666.666 0 00-.89-.31z"/><path d="M8 2.667a.667.667 0 00-.667.666V8c0 .368.3.667.667.667h3.334a.667.667 0 000-1.334H8.667v-4A.667.667 0 008 2.667z"/></g><defs><clipPath id="clip0_63_922"><path fill="#fff" d="M0 0h16v16H0z"/></clipPath></defs></svg>