<svg width="19" height="19" fill="none" xmlns="http://www.w3.org/2000/svg"><path d="M11.18 8.28a2.076 2.076 0 00-1.688-.874c-.693 0-1.31.346-1.687.874a2.14 2.14 0 00-.392 1.22c0 1.145.934 2.08 2.08 2.08a2.085 2.085 0 002.079-2.08c0-.452-.151-.874-.392-1.22z" fill="#fff"/><path d="M12.49 8.295c.152.301.242.783.242 1.205a3.244 3.244 0 01-3.24 3.24A3.235 3.235 0 016.254 9.5c0-.437.09-.904.241-1.205H4.671v4.836c0 .633.557 1.19 1.19 1.19h7.263c.633 0 1.19-.557 1.19-1.19V8.295h-1.823zm1.282-3.345h-1.748v2.004h1.989V4.935l-.241.015z" fill="#fff"/><path d="M14.224.009H4.76A4.771 4.771 0 000 4.77v9.478c0 2.606 2.14 4.746 4.761 4.746h9.478A4.771 4.771 0 0019 14.232V4.77C18.985 2.148 16.845.01 14.224.01zm1.145 8.272v4.851c0 1.266-.98 2.245-2.245 2.245H5.86a2.213 2.213 0 01-2.245-2.245V5.87c0-1.266.98-2.245 2.245-2.245h7.263c1.265 0 2.245.98 2.245 2.245v2.41z" fill="#fff"/></svg>