<svg width="61" height="61" fill="none" xmlns="http://www.w3.org/2000/svg"><g clip-path="url(#clip0_31_25)" fill="#fff"><path d="M16.636 29.114a1.386 1.386 0 10-2.772 0c0 3.64 4.015 8.639 4.473 9.198a1.39 1.39 0 001.952.192c.592-.486.677-1.36.192-1.952-1.486-1.812-3.845-5.432-3.845-7.438zm29.114-1.387c-.766 0-1.386.62-1.386 1.387 0 2-2.359 5.624-3.845 7.44a1.387 1.387 0 002.144 1.758c.458-.56 4.473-5.558 4.473-9.198 0-.767-.62-1.387-1.386-1.387zm-15.25 0c-.766 0-1.386.62-1.386 1.387v8.318a1.386 1.386 0 102.773 0v-8.318c0-.767-.62-1.387-1.387-1.387z"/><path d="M45.75 5.545c-.84 0-1.718.112-2.63.281C40.067 2.266 35.547 0 30.5 0c-5.047 0-9.567 2.267-12.62 5.826-.912-.17-1.79-.28-2.63-.28C6.841 5.545 0 12.385 0 20.795c0 5.762 3.25 11 8.35 13.59l-.026 20.95a5.62 5.62 0 001.654 4.004A5.616 5.616 0 0013.98 61h33.045a5.662 5.662 0 005.657-5.657V34.365A15.248 15.248 0 0061 20.795c0-8.408-6.841-15.25-15.25-15.25zm4.16 49.799a2.888 2.888 0 01-2.885 2.883H13.98c-.77 0-1.495-.3-2.04-.846a2.865 2.865 0 01-.844-2.041l.008-5.43h38.805v5.434zm.858-23.137a1.36 1.36 0 00-.632.524 1.37 1.37 0 00-.227.79v13.615H11.107l.018-13.597a1.39 1.39 0 00-.863-1.316 12.475 12.475 0 01-7.49-11.427c0-6.881 5.598-12.478 12.478-12.478.269 0 .553.033.831.055a16.515 16.515 0 00-2.217 8.263 1.386 1.386 0 102.772 0c0-7.644 6.22-13.863 13.864-13.863 7.644 0 13.864 6.22 13.864 13.863a1.386 1.386 0 102.772 0 16.52 16.52 0 00-2.217-8.263c.278-.022.562-.055.831-.055 6.88 0 12.477 5.597 12.477 12.478a12.48 12.48 0 01-7.46 11.411z"/></g><defs><clipPath id="clip0_31_25"><path fill="#fff" d="M0 0h61v61H0z"/></clipPath></defs></svg>