<svg width="20" height="19" fill="none" xmlns="http://www.w3.org/2000/svg"><g clip-path="url(#clip0_19_336)"><path d="M11.211 10.471c-.304-.177-.727-.177-1.071-.177H9.01v2.327h1.037c.383 0 .873.028 1.204-.204.304-.205.476-.606.476-.988 0-.355-.212-.78-.516-.958zm-.426-1.987c.252-.192.384-.533.384-.847 0-.342-.159-.67-.45-.847-.304-.177-.86-.136-1.217-.136H9.01v2.048h.651c.37 0 .807.028 1.124-.218zM16.348 0H4.027a3.34 3.34 0 00-3.34 3.34v12.32A3.34 3.34 0 004.027 19h12.32a3.34 3.34 0 003.34-3.34V3.34A3.34 3.34 0 0016.348 0zm-5.645 14.356H6.82V4.988h4.241c1.229 0 2.362.782 2.362 2.16 0 1.066-.594 1.795-1.353 2.022v.027c1.125.233 1.928.844 1.928 2.317 0 1.364-.929 2.842-3.296 2.842z" fill="#fff"/></g><defs><clipPath id="clip0_19_336"><path fill="#fff" transform="translate(.688)" d="M0 0h19v19H0z"/></clipPath></defs></svg>