<svg width="20" height="19" fill="none" xmlns="http://www.w3.org/2000/svg"><g clip-path="url(#clip0_19_339)" fill="#fff"><path d="M15.813 0H3.937A3.562 3.562 0 00.375 3.562v11.875A3.562 3.562 0 003.937 19h11.875a3.562 3.562 0 003.563-3.563V3.563A3.562 3.562 0 0015.812 0zm-.101 11.627c-.065.79-.665 1.8-1.505 1.946-2.69.21-5.877.183-8.663 0-.869-.11-1.44-1.157-1.504-1.946-.136-1.66-.136-2.606 0-4.266.064-.79.65-1.83 1.504-1.926 2.754-.231 5.96-.182 8.663 0 .967.036 1.44 1.032 1.505 1.823.133 1.66.133 2.709 0 4.369z"/><path d="M8.688 11.875L12.25 9.5 8.687 7.125v4.75z"/></g><defs><clipPath id="clip0_19_339"><path fill="#fff" transform="translate(.375)" d="M0 0h19v19H0z"/></clipPath></defs></svg>